<svg height="960" viewBox="0 0 960 960" width="960" xmlns="http://www.w3.org/2000/svg">
    <g fill="none" fill-rule="evenodd" stroke="#000" stroke-linejoin="round">
        <path d="m385.304893 23.8904342 283.002149 8.6791075v877.7522083l-280.59408 27.97049-91.233956-71.905269v-34.378586l-5.250106-3.092817v-789.38949z"
              stroke-width="40"/>
        <g stroke-linecap="round" stroke-width="20">
            <path d="m386.650689 43.94111-.266359 868.606335"/>
            <path d="m412.625349 236.39041h218.106021l-32.207266-63.759174-185.326617-2.428668z"/>
            <path d="m472.528905 175.220377 26.67318 57.164672"/>
            <path d="m507.139283 177.541713 24.624302 54.843336"/>
            <path d="m572.523748 179.72698 25.081699 52.658069"/>
            <path d="m439.542873 179.72698 24.11905 52.658069"/>
            <path d="m413 192 18.661923 40.385049"/>
            <path d="m541.042418 179.72698 22.241458 50.481564"/>
            <path d="m416.379106 294.096319 213.739519-2.194335-63.253834-7.619551h-150.485685"/>
            <path d="m410.43346 408.724587 219.468388-4.893857-83.258762-17.145633h-135.247046"/>
            <path d="m410.43346 521.830697 217.257625-7.111004-79.344019-27.169911-137.913606 4.596105"/>
            <path d="m416.379106 635.58838 211.311979-13.047359-76.126519-30.797997-136.354183 6.249687"/>
            <path d="m410.43346 745.271087 217.257625-14.452208-80.746854-39.798172-134.857807 7.828197"/>
            <path d="m415.902456 835.6862c4.660768-.422754 9.446082-2.581025 14.355941-6.474815h9.550869c2.880493 2.828016 6.85552 4.242023 11.925081 4.242023s8.870581-2.246126 11.403059-6.738377l9.814973-.802224c3.406458 3.275109 7.317584 4.912663 11.733376 4.912663 4.415793 0 8.210938-2.25628 11.385436-6.768841l11.068092-.701116c1.449777 3.181031 4.975665 4.536208 10.577662 4.065532s9.213491-2.822639 10.834481-7.055889l8.690731-.895442c2.281095 3.527989 6.572748 4.823255 12.874959 3.885799 6.30221-.937456 9.551948-2.834691 9.749212-5.691705l9.902923-.617432c2.804348 3.491401 6.636591 4.917382 11.496728 4.277941 4.860137-.63944 8.535545-2.796627 11.026222-6.471559l8.542516-.842444c2.842004 3.822722 7.292775 5.278884 13.352311 4.368487 6.059537-.910397 10.173877-3.537972 12.343023-7.882726"/>
            <path d="m431.21534 316.252286v230.659247l-29-7.317172v-229.36836z"/>
            <path d="m550.163147 88.6598557v81.2110293m0 68.887897v41.35295m0 16.928999v89.976387m0 19.999038v79.803658m0 32.284751v71.799225m-.163147 38.09621.163147 62.020707m0 46.291102v22.588399l77.527938 44.017534"/>
            <path d="m550.163147 759.900208-139.514735 10.874516"/>
            <path d="m413.718633 71.30619 216.714827 5.7997459v764.5011861l-220 18.464185z"/>
        </g>
    </g>
</svg>
