<svg height="960" viewBox="0 0 960 960" width="960" xmlns="http://www.w3.org/2000/svg">
    <g fill="none" fill-rule="evenodd" stroke="#000" stroke-linejoin="round">
        <path d="m81.5892816 36.4685298 797.5952024 17.1099459v838.3249463l-797.5952024 31.812356z" stroke-width="40"/>
        <g stroke-linecap="round" stroke-width="20">
            <path d="m101 161 359 7m70 2 329 7"/>
            <path d="m101.589282 208.385771 757.595202 11.149452"/>
            <path d="m403 83 179 5.9074611v57.0925389l-55.717502-1.498762c-5.310866-8.72244-14.589393-14.501238-25.147577-14.501238h-11.269842l-.493873.00422c-9.683884.165605-18.247333 5.192665-23.592204 12.868176l-62.779002-1.689108z"/>
            <ellipse cx="500.858299" cy="161.296788" rx="29.950258" ry="31.645555"/>
            <path d="m490 193c-16.568542 0-30-14.10303-30-31.5s13.431458-31.5 30-31.5h11c16.568542 0 30 14.10303 30 31.5s-13.431458 31.5-30 31.5z"/>
            <path d="m240 331 501 3v356l-501 9z"/>
            <path d="m354.014515 332v134.185342l37.345749 7.453108 122.063758-2.850248v-137.788202z"/>
            <path d="m402.872746 473.63845v15.415161l28.24213-1v-15.185504l23.683495-.625557v14.415161l25.201629-.540855v-14.415161"/>
            <path d="m627.974178 338.184827v323.22308l-387.974178 7.899066"/>
            <path d="m627.974178 661.407907 113.025822 21.903695"/>
            <path d="m391.360264 473.63845v-141.63845"/>
            <path d="m354.014515 431.315182 37.345749 4.694227 122.063758-1.694227"/>
        </g>
    </g>
</svg>
