<?xml version="1.0" encoding="utf-8"?>
<!-- Generator: Adobe Illustrator 24.0.3, SVG Export Plug-In . SVG Version: 6.00 Build 0)  -->
<svg version="1.1" id="Layer_1" xmlns="http://www.w3.org/2000/svg" x="0px"
     y="0px"
     viewBox="0 0 70 70" style="enable-background:new 0 0 70 70;" xml:space="preserve">
<style type="text/css">
	.st0{fill:url(#SVGID_1_);}
</style>
    <linearGradient id="SVGID_1_" gradientUnits="userSpaceOnUse" x1="67.95" y1="-392.5497" x2="10.2625" y2="-334.8622"
                    gradientTransform="matrix(1 0 0 -1 0 -324.5996)">
	<stop offset="0" style="stop-color:#6DC2ED"/>
        <stop offset="1" style="stop-color:#4A62AD"/>
</linearGradient>
    <path class="st0" d="M65.1,52.9C68.2,47.7,70,41.5,70,35C70,15.7,54.3,0,35,0S0,15.7,0,35s15.7,35,35,35c6.5,0,12.7-1.8,17.9-4.9
	l13.4,3.3c1.3,0.3,2.4-0.8,2.1-2.1L65.1,52.9z M49.2,47.6c0,1-0.8,1.7-1.7,1.7h-24c-1,0-1.7-0.8-1.7-1.7V26.5c0-0.5,0.2-1,0.6-1.3
	l12-10.4c0.6-0.6,1.6-0.6,2.3,0l12,10.4c0.4,0.3,0.6,0.8,0.6,1.3L49.2,47.6L49.2,47.6z"/>
</svg>
