<svg height="960" viewBox="0 0 960 960" width="960" xmlns="http://www.w3.org/2000/svg">
    <g fill="none" fill-rule="evenodd" stroke="#000" stroke-linejoin="round">
        <path d="m240.05393 303.281473-83.317186 331.783652 632.397811 66.109913 86.416795-314.635459z"
              stroke-linecap="round" stroke-width="20"/>
        <path d="m214.000013-43.7388668 346.999998 28.9627511-.000211 339.6156337 340.368029 44.59352-97.014177 353.222917-31.298652-3.273955-50.605679 151.518912-131.215919-10.601906-49.509406 30.158019-428.99119-34.598469v-35.644537l-57.1055325-4.355568 58.3592035-192.426775 2.508885-206.136569 84.272638-38.837107 13.231791-52.692627z"
              stroke-width="40"/>
        <g stroke-linecap="round" stroke-width="20">
            <path d="m323-12-.086856 325.011454"/>
            <path d="m137.732806 837.406631 37.267194-21.406631"/>
            <path d="m119.732806 810.681374 453.640459 38.15977"/>
            <path d="m119.936278 634.321144 2.923575-7 36.076425 3.5"/>
            <path d="m82 755.362214 662 55.637786"/>
        </g>
    </g>
</svg>
